<?xml version="1.0" standalone="no"?>
<!DOCTYPE svg PUBLIC "-//W3C//DTD SVG 20010904//EN"
 "http://www.w3.org/TR/2001/REC-SVG-20010904/DTD/svg10.dtd">
<svg version="1.0" xmlns="http://www.w3.org/2000/svg"
 width="1024.000000pt" height="1024.000000pt" viewBox="0 0 1024.000000 1024.000000"
 preserveAspectRatio="xMidYMid meet">
<metadata>
Created by potrace 1.11, written by Peter Selinger 2001-2013
</metadata>
<g transform="translate(0.000000,1024.000000) scale(0.100000,-0.100000)"
fill="#000000" stroke="none">
<path d="M3279 9998 c-2 -33 -5 -55 -17 -133 -6 -38 -14 -86 -16 -105 -3 -19
-8 -53 -11 -75 -4 -22 -13 -80 -20 -130 -8 -49 -16 -106 -19 -125 -18 -129
-54 -373 -61 -410 -2 -14 -6 -41 -9 -60 -27 -202 -24 -192 -79 -235 -64 -51
-265 -249 -339 -335 -179 -207 -322 -420 -441 -655 -86 -170 -115 -238 -173
-407 -40 -117 -73 -236 -103 -363 -11 -49 -14 -65 -25 -135 -3 -19 -7 -44 -10
-55 -2 -11 -7 -49 -11 -85 -4 -36 -10 -78 -13 -95 -11 -62 -13 -5548 -2 -5620
6 -40 25 -100 45 -140 146 -303 531 -395 801 -191 87 66 143 145 186 262 21
58 21 72 24 634 1 316 3 578 3 583 1 4 96 6 213 5 l211 -3 2 -565 c0 -311 5
-583 9 -605 5 -22 26 -76 47 -121 159 -328 597 -400 852 -140 68 68 130 180
143 256 4 25 9 48 10 53 1 4 2 259 3 567 l1 560 640 0 640 0 1 -552 c0 -304 3
-566 5 -583 46 -305 335 -510 633 -448 187 38 339 174 403 361 22 66 23 71 24
642 2 316 3 577 3 580 1 3 97 5 214 5 l212 0 -1 -547 c0 -301 3 -576 8 -610 6
-37 26 -96 49 -144 160 -328 597 -400 852 -140 69 70 121 162 142 252 11 47
14 178 15 618 0 308 2 561 3 563 2 1 127 4 278 7 151 2 281 6 289 9 8 3 34 8
57 11 115 14 294 76 418 144 303 167 524 429 632 751 30 89 29 89 53 211 16
86 18 165 19 855 1 636 -1 769 -14 815 -55 205 -206 346 -425 397 -39 9 -181
2 -233 -12 -181 -47 -323 -188 -378 -375 -10 -35 -14 -207 -15 -781 l-1 -736
-25 -54 c-34 -75 -100 -137 -168 -157 -8 -3 -122 -7 -252 -9 l-238 -4 -1 1608
c-1 884 -2 1631 -4 1658 -5 106 -16 210 -41 365 -11 71 -46 227 -70 315 -176
626 -531 1174 -1037 1602 -18 15 -27 35 -32 70 -3 26 -10 71 -15 98 -5 28 -12
72 -15 98 -4 27 -8 58 -11 70 -5 27 -12 80 -19 137 -3 25 -10 70 -15 100 -5
30 -12 71 -14 90 -3 19 -9 64 -15 100 -5 36 -13 85 -16 110 -3 25 -8 59 -11
75 -3 17 -7 44 -8 60 -2 17 -6 44 -9 60 -6 30 -10 59 -23 150 -3 28 -8 52 -10
54 -2 3 -39 -32 -82 -77 -42 -44 -145 -152 -229 -239 -83 -87 -207 -216 -275
-287 l-124 -129 -104 37 c-149 53 -410 116 -540 131 -25 3 -52 7 -60 10 -8 2
-51 7 -95 10 -44 4 -96 8 -115 11 -41 4 -368 4 -420 -1 -19 -1 -69 -6 -110 -9
-93 -9 -183 -22 -280 -42 -76 -16 -97 -20 -137 -28 -58 -12 -224 -60 -301 -88
l-86 -31 -100 105 c-89 93 -234 244 -519 541 -47 48 -87 87 -91 87 -3 0 -7
-10 -7 -22z"/>
</g>
</svg>
